<svg xmlns="http://www.w3.org/2000/svg" viewBox="0 0 146 201.5"><defs><style>.cls-1{fill:#f49739;}.cls-2{fill:#fdcc68;}.cls-3{fill:#639;}</style></defs><title>Robota_colorido st</title><g id="Layer_4" data-name="Layer 4"><polygon class="cls-1" points="110 73 101 82 73 55 73 37 110 73"/><polygon class="cls-1" points="91.5 164.5 91.5 201.5 73 183 73 164.53 54.99 146.47 55 128 91.5 164.5"/><polygon class="cls-2" points="109 167 109 183 93 199 93 183 109 167"/><polygon class="cls-1" points="18.5 91.5 18.5 164.5 0 146 0 73 18.5 91.5"/><path class="cls-2" d="M146,73,73,0,0,73,18.5,91.5v73l18-18v-55L73,55V37l37,36L55,128l36.5,36.5v37L110,183V146l-9-9,45-45ZM109,183,93,199V183l16-16ZM89,128l18,18L91.5,161.5,58,128l55-55L73,34,18.51,88.49l-15-15L73,3l71,70Z"/><polygon class="cls-3" points="89 128 107 146 91.5 161.5 58 128 113 73 73 34 18.51 88.49 3.51 73.49 73 3 144 73 89 128"/><polygon class="cls-3" points="109 167 109 183 93 199 93 183 109 167"/></g></svg>